<mxfile host="app.diagrams.net" modified="2020-05-25T08:14:37.971Z" agent="5.0 (Macintosh; Intel Mac OS X 10_14_6) AppleWebKit/537.36 (KHTML, like Gecko) Chrome/83.0.4103.61 Safari/537.36" etag="fSeCiq3UBfrpSOpw_aog" version="13.0.1" type="github">
  <diagram id="ZQzod_JJvu6OaYSUkLO6" name="Page-1">
    <mxGraphModel dx="1207" dy="740" grid="1" gridSize="10" guides="1" tooltips="1" connect="1" arrows="1" fold="1" page="1" pageScale="1" pageWidth="827" pageHeight="1169" math="0" shadow="0">
      <root>
        <mxCell id="0" />
        <mxCell id="1" parent="0" />
        <mxCell id="LsChUBPlLILq551XUqsl-18" style="edgeStyle=orthogonalEdgeStyle;rounded=0;orthogonalLoop=1;jettySize=auto;html=1;exitX=0.5;exitY=1;exitDx=0;exitDy=0;entryX=1;entryY=0.25;entryDx=0;entryDy=0;" edge="1" parent="1" source="LsChUBPlLILq551XUqsl-1" target="LsChUBPlLILq551XUqsl-6">
          <mxGeometry relative="1" as="geometry" />
        </mxCell>
        <mxCell id="LsChUBPlLILq551XUqsl-1" value="message" style="shape=ext;rounded=1;html=1;whiteSpace=wrap;dashed=1;dashPattern=1 4;" vertex="1" parent="1">
          <mxGeometry x="600" y="120" width="120" height="80" as="geometry" />
        </mxCell>
        <mxCell id="LsChUBPlLILq551XUqsl-17" style="edgeStyle=orthogonalEdgeStyle;rounded=0;orthogonalLoop=1;jettySize=auto;html=1;exitX=0.5;exitY=1;exitDx=0;exitDy=0;entryX=0.75;entryY=0;entryDx=0;entryDy=0;" edge="1" parent="1" source="LsChUBPlLILq551XUqsl-2" target="LsChUBPlLILq551XUqsl-6">
          <mxGeometry relative="1" as="geometry" />
        </mxCell>
        <mxCell id="LsChUBPlLILq551XUqsl-2" value="skyline" style="shape=ext;rounded=1;html=1;whiteSpace=wrap;dashed=1;dashPattern=1 4;" vertex="1" parent="1">
          <mxGeometry x="440" y="120" width="120" height="80" as="geometry" />
        </mxCell>
        <mxCell id="LsChUBPlLILq551XUqsl-16" style="edgeStyle=orthogonalEdgeStyle;rounded=0;orthogonalLoop=1;jettySize=auto;html=1;exitX=0.5;exitY=1;exitDx=0;exitDy=0;entryX=0.25;entryY=0;entryDx=0;entryDy=0;" edge="1" parent="1" source="LsChUBPlLILq551XUqsl-4" target="LsChUBPlLILq551XUqsl-6">
          <mxGeometry relative="1" as="geometry" />
        </mxCell>
        <mxCell id="LsChUBPlLILq551XUqsl-4" value="sigma" style="shape=ext;rounded=1;html=1;whiteSpace=wrap;" vertex="1" parent="1">
          <mxGeometry x="280" y="120" width="120" height="80" as="geometry" />
        </mxCell>
        <mxCell id="LsChUBPlLILq551XUqsl-19" style="edgeStyle=orthogonalEdgeStyle;rounded=0;orthogonalLoop=1;jettySize=auto;html=1;exitX=0.5;exitY=1;exitDx=0;exitDy=0;entryX=0;entryY=0.25;entryDx=0;entryDy=0;" edge="1" parent="1" source="LsChUBPlLILq551XUqsl-5" target="LsChUBPlLILq551XUqsl-6">
          <mxGeometry relative="1" as="geometry" />
        </mxCell>
        <mxCell id="LsChUBPlLILq551XUqsl-5" value="drc" style="shape=ext;rounded=1;html=1;whiteSpace=wrap;" vertex="1" parent="1">
          <mxGeometry x="110" y="120" width="120" height="80" as="geometry" />
        </mxCell>
        <mxCell id="LsChUBPlLILq551XUqsl-6" value="listener" style="shape=ext;rounded=1;html=1;whiteSpace=wrap;" vertex="1" parent="1">
          <mxGeometry x="354" y="250" width="120" height="80" as="geometry" />
        </mxCell>
        <mxCell id="LsChUBPlLILq551XUqsl-7" value="parser" style="shape=ext;rounded=1;html=1;whiteSpace=wrap;" vertex="1" parent="1">
          <mxGeometry x="224" y="370" width="120" height="80" as="geometry" />
        </mxCell>
        <mxCell id="LsChUBPlLILq551XUqsl-8" value="transfer" style="shape=ext;rounded=1;html=1;whiteSpace=wrap;" vertex="1" parent="1">
          <mxGeometry x="354" y="370" width="120" height="80" as="geometry" />
        </mxCell>
        <mxCell id="LsChUBPlLILq551XUqsl-11" value="messager" style="shape=ext;rounded=1;html=1;whiteSpace=wrap;" vertex="1" parent="1">
          <mxGeometry x="354" y="505" width="120" height="80" as="geometry" />
        </mxCell>
        <mxCell id="LsChUBPlLILq551XUqsl-13" value="writer" style="shape=ext;rounded=1;html=1;whiteSpace=wrap;" vertex="1" parent="1">
          <mxGeometry x="484" y="370" width="120" height="80" as="geometry" />
        </mxCell>
        <mxCell id="LsChUBPlLILq551XUqsl-15" value="checker" style="shape=ext;rounded=1;html=1;whiteSpace=wrap;" vertex="1" parent="1">
          <mxGeometry x="94" y="370" width="120" height="80" as="geometry" />
        </mxCell>
        <mxCell id="LsChUBPlLILq551XUqsl-20" value="reader" style="shape=ext;rounded=1;html=1;whiteSpace=wrap;" vertex="1" parent="1">
          <mxGeometry x="614" y="370" width="120" height="80" as="geometry" />
        </mxCell>
      </root>
    </mxGraphModel>
  </diagram>
</mxfile>
